<?xml version="1.0" encoding="UTF-8" standalone="no"?>
<!-- Created with Inkscape (http://www.inkscape.org/) -->

<svg
   xmlns:dc="http://purl.org/dc/elements/1.1/"
   xmlns:cc="http://creativecommons.org/ns#"
   xmlns:rdf="http://www.w3.org/1999/02/22-rdf-syntax-ns#"
   xmlns:svg="http://www.w3.org/2000/svg"
   xmlns="http://www.w3.org/2000/svg"
   xmlns:sodipodi="http://sodipodi.sourceforge.net/DTD/sodipodi-0.dtd"
   xmlns:inkscape="http://www.inkscape.org/namespaces/inkscape"
   width="61.547009mm"
   height="61.547009mm"
   viewBox="0 0 61.547009 61.547009"
   version="1.1"
   id="svg40"
   inkscape:version="0.92.5 (2060ec1f9f, 2020-04-08)"
   sodipodi:docname="favicon.svg"
   inkscape:export-filename="/home/bernhard/Projects/homepage/brnrdlang.github.io/favicon.ico.png"
   inkscape:export-xdpi="13.206165"
   inkscape:export-ydpi="13.206165">
  <defs
     id="defs34" />
  <sodipodi:namedview
     id="base"
     pagecolor="#ffffff"
     bordercolor="#666666"
     borderopacity="1.0"
     inkscape:pageopacity="0.0"
     inkscape:pageshadow="2"
     inkscape:zoom="1.979899"
     inkscape:cx="-11.052728"
     inkscape:cy="72.057503"
     inkscape:document-units="mm"
     inkscape:current-layer="layer1"
     showgrid="false"
     fit-margin-top="0"
     fit-margin-left="0"
     fit-margin-right="0"
     fit-margin-bottom="0"
     inkscape:window-width="1200"
     inkscape:window-height="1871"
     inkscape:window-x="0"
     inkscape:window-y="25"
     inkscape:window-maximized="1" />
  <metadata
     id="metadata37">
    <rdf:RDF>
      <cc:Work
         rdf:about="">
        <dc:format>image/svg+xml</dc:format>
        <dc:type
           rdf:resource="http://purl.org/dc/dcmitype/StillImage" />
        <dc:title />
      </cc:Work>
    </rdf:RDF>
  </metadata>
  <g
     inkscape:label="Layer 1"
     inkscape:groupmode="layer"
     id="layer1"
     transform="translate(-72.392527,-110.06002)">
    <path
       style="fill:#f9f9f9;fill-opacity:1;stroke:none;stroke-width:2.25529242;stroke-miterlimit:4;stroke-dasharray:none"
       d="M 117.52734 0.005859375 A 116.30931 116.30931 0 0 0 0.0078125 115.00586 L 0.00390625 115.34375 A 116.30931 116.30931 0 0 0 115.25781 232.61328 A 116.30931 116.30931 0 0 0 232.61328 117.44336 A 116.30931 116.30931 0 0 0 117.52734 0.005859375 z M 115.67578 7.3046875 L 128.2207 38.662109 L 74.326172 173.37305 L 79.119141 173.86914 L 130.68359 44.824219 L 140.68945 69.835938 L 98.326172 175.85156 L 107.92969 176.84375 L 145.69141 82.341797 L 153.19531 101.10156 L 122.33398 178.33203 L 136.74023 179.82031 L 160.69922 119.86133 L 165.70117 132.36719 L 146.34375 180.81055 L 165.55078 182.79492 L 175.70703 157.38086 L 178.20898 163.63281 L 170.35352 183.29102 L 186.74805 184.98438 L 190.71484 194.89844 C 140.77935 214.71964 90.550239 213.72064 40.714844 194.89844 L 50.306641 170.89258 L 115.67578 7.3046875 z "
       id="path75"
       transform="matrix(0.26458333,0,0,0.26458333,72.392527,110.06002)" />
  </g>
</svg>
