<?xml version="1.0" encoding="UTF-8" standalone="no"?>
<!-- Created with Inkscape (http://www.inkscape.org/) -->

<svg
   xmlns:dc="http://purl.org/dc/elements/1.1/"
   xmlns:cc="http://creativecommons.org/ns#"
   xmlns:rdf="http://www.w3.org/1999/02/22-rdf-syntax-ns#"
   xmlns:svg="http://www.w3.org/2000/svg"
   xmlns="http://www.w3.org/2000/svg"
   xmlns:sodipodi="http://sodipodi.sourceforge.net/DTD/sodipodi-0.dtd"
   xmlns:inkscape="http://www.inkscape.org/namespaces/inkscape"
   width="85.334435mm"
   height="29.036137mm"
   viewBox="0 0 85.334435 29.036137"
   version="1.1"
   id="svg8"
   inkscape:version="0.92.5 (2060ec1f9f, 2020-04-08)"
   sodipodi:docname="fonts.svg"
   inkscape:export-filename="/home/bernhard/Pictures/achromatic-font.png"
   inkscape:export-xdpi="300"
   inkscape:export-ydpi="300">
  <defs
     id="defs2" />
  <sodipodi:namedview
     id="base"
     pagecolor="#1e1e1e"
     bordercolor="#666666"
     borderopacity="1.0"
     inkscape:pageopacity="1"
     inkscape:pageshadow="2"
     inkscape:zoom="1.979899"
     inkscape:cx="158.52128"
     inkscape:cy="45.223376"
     inkscape:document-units="mm"
     inkscape:current-layer="layer1"
     showgrid="false"
     fit-margin-top="1"
     fit-margin-left="1"
     fit-margin-right="1"
     fit-margin-bottom="1"
     inkscape:window-width="1200"
     inkscape:window-height="1863"
     inkscape:window-x="0"
     inkscape:window-y="25"
     inkscape:window-maximized="1" />
  <metadata
     id="metadata5">
    <rdf:RDF>
      <cc:Work
         rdf:about="">
        <dc:format>image/svg+xml</dc:format>
        <dc:type
           rdf:resource="http://purl.org/dc/dcmitype/StillImage" />
        <dc:title></dc:title>
        <cc:license
           rdf:resource="http://creativecommons.org/licenses/by-nc-sa/4.0/" />
      </cc:Work>
      <cc:License
         rdf:about="http://creativecommons.org/licenses/by-nc-sa/4.0/">
        <cc:permits
           rdf:resource="http://creativecommons.org/ns#Reproduction" />
        <cc:permits
           rdf:resource="http://creativecommons.org/ns#Distribution" />
        <cc:requires
           rdf:resource="http://creativecommons.org/ns#Notice" />
        <cc:requires
           rdf:resource="http://creativecommons.org/ns#Attribution" />
        <cc:prohibits
           rdf:resource="http://creativecommons.org/ns#CommercialUse" />
        <cc:permits
           rdf:resource="http://creativecommons.org/ns#DerivativeWorks" />
        <cc:requires
           rdf:resource="http://creativecommons.org/ns#ShareAlike" />
      </cc:License>
    </rdf:RDF>
  </metadata>
  <g
     inkscape:label="Layer 1"
     inkscape:groupmode="layer"
     id="layer1"
     transform="translate(-47.650307,-41.807721)">
    <flowRoot
       xml:space="preserve"
       id="flowRoot10"
       style="font-style:normal;font-variant:normal;font-weight:normal;font-stretch:normal;font-size:21.33333397px;line-height:1.25;font-family:Achromatic;-inkscape-font-specification:Achromatic;letter-spacing:0px;word-spacing:0px;fill:#000000;fill-opacity:1;stroke:none"
       transform="scale(0.26458333)"><flowRegion
         id="flowRegion12"><rect
           id="rect14"
           width="297.85715"
           height="312.14285"
           x="172.14285"
           y="211.8054" /></flowRegion><flowPara
         id="flowPara16" /></flowRoot>    <g
       aria-label="ABCDEFGHIJKLMNOPQRSTUVWXYZ
abcdefghijklmnopqrstuvwxyz
1234567890.:,;(*!?')
"
       transform="matrix(0.26458333,0,0,0.26458333,8.2853554,-9.7553378)"
       style="font-style:normal;font-variant:normal;font-weight:normal;font-stretch:normal;font-size:21.33333397px;line-height:1.25;font-family:Achromatic;-inkscape-font-specification:Achromatic;text-align:center;letter-spacing:0px;word-spacing:0px;text-anchor:middle;fill:#e6e6e6;fill-opacity:1;stroke:none"
       id="flowRoot18">
      <path
         d="m 158.14978,199.45286 h -1.23733 c -0.78934,2.56 -3.60534,10.64534 -4.352,12.80001 h 1.25866 l 1.04534,-3.072 h 5.248 c 0.49067,1.472 0.896,2.66666 1.024,3.072 h 1.28 c -0.74667,-2.15467 -3.49867,-10.21867 -4.26667,-12.80001 z m -2.88,8.53334 2.26133,-6.67734 c 0.512,1.55734 1.408,4.30934 2.19734,6.67734 z"
         style=""
         id="path862" />
      <path
         d="m 165.89378,200.15686 v 11.56267 c 1.13066,0.384 2.47466,0.68267 3.73333,0.68267 2.15467,0 4.032,-0.896 4.032,-3.88267 0,-1.57866 -0.87467,-3.008 -2.64533,-3.43467 0.704,-0.512 1.64266,-1.42933 1.64266,-2.752 v -0.0427 c -0.0853,-2.06934 -1.472,-3.072 -3.328,-3.072 -1.04533,0 -2.24,0.32 -3.43466,0.93866 z m 1.23733,5.61067 c 0.34133,0 0.704,0 1.06667,0 2.06933,0 4.288,0.32 4.288,3.008 0,1.96267 -1.36534,2.624 -2.944,2.624 -0.832,0 -1.70667,-0.192 -2.47467,-0.46933 0,-1.6 0.064,-3.56267 0.064,-5.16267 z m -0.0427,-1.088 0.0213,-3.73333 c 0.576,-0.40534 1.30133,-0.59734 1.96266,-0.59734 1.28,0 2.432,0.68267 2.432,1.87734 0,2.432 -2.06933,2.47466 -4.20266,2.47466 -0.0853,0 -0.14934,-0.0213 -0.21334,-0.0213 z"
         style=""
         id="path864" />
      <path
         d="m 186.88574,200.39153 c 0,0 -2.38933,-0.98133 -4.43733,-1.00267 h -0.064 c -4.65067,0.17067 -5.632,4.608 -5.632,6.464 0,2.15467 1.13067,6.46401 5.26933,6.48534 h 0.0427 c 2.26133,-0.064 4.52267,-0.93867 4.52267,-0.93867 l -0.448,-1.04533 c 0,0 -2.53867,0.72533 -4.05334,0.72533 -2.88,0 -4.05333,-3.52 -4.13866,-5.22667 v -0.128 c 0,-1.792 0.85333,-4.928 4.50133,-5.03466 h 0.0427 c 1.36533,0 3.776,0.61866 3.776,0.61866 z"
         style=""
         id="path866" />
      <path
         d="m 190.87506,211.61287 c 0,0 2.26134,0.87466 4.52267,0.93866 h 0.0427 c 4.13867,-0.0213 5.26933,-4.33066 5.26933,-6.48533 0,-1.856 -0.704,-7.01867 -5.35466,-7.18934 h -0.064 c -2.048,0.0213 -4.43734,1.00267 -4.43734,1.00267 z m 1.17334,-10.96534 c 0.21333,-0.064 1.92,-0.46933 3.2,-0.46933 h 0.0427 c 3.648,0.10666 4.224,3.968 4.224,5.76 v 0.128 c -0.0853,1.70667 -1.25867,5.22667 -4.13867,5.22667 -0.896,0 -2.304,-0.29867 -3.30667,-0.53334 z"
         style=""
         id="path868" />
      <path
         d="m 205.48839,199.4742 v -0.0213 h -1.19466 v 1.19467 0 c 0,0.93867 0.0213,0.81067 0.0213,2.02667 0,0.66133 0,4.544 0,4.90667 0,1.92 0.0213,4.672 0.0213,4.672 3.09334,0.0213 4.39467,0.0213 7.82934,0.0213 v -1.19467 c -3.02934,0 -4.30934,0 -6.656,0 0,-0.98133 0,-2.38933 0,-3.47733 0,-0.36267 0,-0.832 0,-1.36534 h 4.97066 v -1.19466 h -4.97066 c 0,-1.87734 -0.0213,-2.816 -0.0213,-4.37334 2.304,0 3.69067,0 6.63467,0 v -1.19466 c -3.02933,0 -4.30933,0 -6.63467,0 z"
         style=""
         id="path870" />
      <path
         d="m 216.73102,199.4742 v -0.0213 h -1.19466 v 1.19467 0 c 0,0.93867 0,0.81067 0,2.02667 0,0.66133 0,4.544 0,4.90667 0,1.92 0.0213,4.672 0.0213,4.672 h 1.19467 c 0,0 -0.0213,-2.79467 -0.0213,-4.65067 0,-0.36267 0,-0.832 0,-1.36534 h 4.97067 v -1.19466 h -4.97067 c 0,-1.87734 0,-2.816 0,-4.37334 2.304,0 3.69067,0 6.63467,0 v -1.19466 c -3.02933,0 -4.30933,0 -6.63467,0 z"
         style=""
         id="path872" />
      <path
         d="m 236.27234,199.6662 c 0,0 -2.368,-0.96 -4.416,-0.98134 -0.0427,0 -0.064,-0.0213 -0.064,-0.0213 -4.65067,0.17067 -5.35467,5.33333 -5.35467,7.21067 0,2.13333 1.13067,6.44267 5.26934,6.48533 0,0 0.0213,0 0.0427,-0.0213 2.26134,-0.064 4.52267,-0.93867 4.52267,-0.93867 l -0.0213,-0.0213 v -6.16534 c -0.96,0 -4.30934,0.0213 -5.73867,0.0213 v 1.19466 h 4.544 v 4.13867 c -0.85333,0.21334 -2.304,0.512 -3.28533,0.512 -2.88,0 -4.05334,-3.49866 -4.13867,-5.20533 0,-0.0427 0,-0.0853 0,-0.14934 0,-1.77066 0.576,-5.65333 4.224,-5.73866 0,-0.0213 0.0213,0 0.0427,0 1.344,0 4.13866,0.74666 4.13866,0.74666 z"
         style=""
         id="path874" />
      <path
         d="m 241.3923,202.6742 c 0,0.66133 0,4.544 0,4.90667 0,1.92 0.0213,4.672 0.0213,4.672 h 1.19466 c 0,0 -0.0213,-2.79467 -0.0213,-4.65067 0,-0.384 0,-0.85333 0,-1.36534 1.984,0 3.264,0 5.44,0 0,0.68267 0.0213,1.21601 0.0213,1.32267 0,1.92 0,4.672 0,4.672 h 1.19467 c 0,0 0,-2.79466 -0.0213,-4.65066 0,-0.36267 0,-0.81067 0,-1.34401 h 0.0213 v -1.19466 h -0.0213 c 0,-2.47467 0,-4.26667 0,-5.61067 h -1.19467 c 0,0.91733 0,1.38667 0,3.22133 0,0.32 0,1.36534 0,2.38934 -2.19733,0 -3.43467,0 -5.44,0 0,-2.47467 -0.0213,-4.24534 -0.0213,-5.58934 h -1.19467 c 0,0.91734 0.0213,1.38667 0.0213,3.22134 z"
         style=""
         id="path876" />
      <path
         d="m 253.61628,199.4742 v 12.77867 h 1.19467 V 199.4742 Z"
         style=""
         id="path878" />
      <path
         d="m 262.4056,202.6742 c 0,0.66133 0,4.544 0,4.90667 0,0.68266 0.0213,4.672 0.0213,4.672 -0.17066,2.45333 -2.00533,2.28266 -3.11466,2.70933 l 0.384,1.13067 c 1.25866,-0.49067 3.88266,-0.17067 3.94666,-3.84 0,0 -0.0427,-3.92534 -0.0427,-4.65067 0,-2.15467 0,-6.272 0,-8.14934 h -1.19467 c 0,0.91734 0,1.38667 0,3.22134 z"
         style=""
         id="path880" />
      <path
         d="m 275.07759,199.4742 c -0.0213,0.0427 -3.66933,4.11733 -5.056,5.696 v -5.696 l -1.152,0.0213 -0.0427,12.75734 h 1.19466 v -5.90934 l 5.312,5.90934 h 1.36534 l -5.78134,-6.52801 5.312,-6.016 z"
         style=""
         id="path882" />
      <path
         d="m 288.4109,212.23153 v -1.19466 c -2.944,0 -4.33067,0.0213 -6.63467,0.0213 l 0.0213,-8.32 c 0,-1.152 0.192,-2.176 0.85333,-3.28534 l -1.088,-0.29866 c -0.64,1.00266 -0.96,2.45333 -0.96,3.584 l -0.0213,9.51467 c 2.90133,0 4.37333,-0.0213 7.82933,-0.0213 z"
         style=""
         id="path884" />
      <path
         d="m 297.54155,204.89286 2.66667,-3.69066 1.6,11.05067 h 1.13066 l -1.83466,-12.73601 h -1.23734 l -2.92266,4.37334 -2.944,-4.39467 h -1.23734 l -1.77066,12.75734 h 1.19466 l 1.49334,-11.09334 2.60266,3.73333 z"
         style=""
         id="path886" />
      <path
         d="m 306.33087,199.45286 0.0213,12.80001 h 1.19467 l -0.0427,-10.73067 5.48267,10.70933 h 1.19467 l -0.0213,-12.8 h -1.19466 v 10.47467 l -5.44,-10.45334 z"
         style=""
         id="path888" />
      <path
         d="m 322.71483,211.1222 c -2.88,0 -4.05333,-3.328 -4.13866,-5.03467 0,-0.0427 0,-0.0853 0,-0.14933 0,-1.77067 0.55466,-5.248 4.20266,-5.33334 0.0213,-0.0213 0.0213,0 0.0427,0 3.24267,0 4.13867,3.52 4.13867,5.39734 0,1.55733 -1.04534,5.12 -4.24534,5.12 z m -5.33333,-5.03467 c 0,2.13334 1.13067,6.272 5.26933,6.31467 0.0213,0 0.0213,0 0.0427,-0.0213 4.544,-0.128 5.46133,-3.98934 5.504,-6.40001 0,-0.0427 0,-0.064 0,-0.10666 0,-2.34667 -0.832,-6.528 -5.41867,-6.57067 -0.0213,0 -0.0427,-0.0213 -0.064,-0.0213 -4.65066,0.17066 -5.33333,4.928 -5.33333,6.80533 z"
         style=""
         id="path890" />
      <path
         d="m 333.14684,200.66886 h 0.53333 0.78933 c 1.728,0 3.75467,0.17067 3.75467,2.38934 0,2.51733 -2.24,2.79466 -3.94667,2.79466 -0.42666,0 -0.81066,-0.0213 -1.13066,-0.0213 z m -1.19467,11.58401 h 1.19467 v -5.184 c 0.34133,0 0.768,0.0213 1.216,0.0213 2.112,0 5.01333,-0.384 5.12,-4.05334 v -0.0427 c -0.0213,-3.17867 -2.496,-3.56267 -4.62934,-3.56267 -0.61866,0 -1.23733,0.0427 -1.728,0.0427 h -1.17333 z"
         style=""
         id="path892" />
      <path
         d="m 342.9388,206.0662 c 0,2.15467 1.13067,6.29333 5.26933,6.31467 h 0.0427 c 1.536,-0.0427 2.41067,-0.384 3.22133,-1.04534 l 1.792,1.00267 0.576,-0.66133 c -0.448,-0.384 -0.93866,-0.81067 -1.42933,-1.23734 1.024,-1.344 1.32267,-3.136 1.344,-4.48 v -0.0853 c 0,-2.368 -0.832,-6.528 -5.41867,-6.592 h -0.064 c -4.65066,0.17066 -5.33333,4.928 -5.33333,6.784 z m 8.40533,3.456 c -0.448,-0.384 -0.87466,-0.768 -1.28,-1.088 l -0.59733,0.66133 0.98133,1.30134 c -0.53333,0.49066 -1.17333,0.72533 -2.176,0.72533 -2.88,0 -4.05333,-3.34933 -4.13866,-5.056 v -0.128 c 0,-1.792 0.55466,-5.248 4.20266,-5.35467 h 0.0427 c 3.24267,0.0213 4.13867,3.52 4.13867,5.39733 0,0.87467 -0.32,2.38934 -1.17334,3.54134 z"
         style=""
         id="path894" />
      <path
         d="m 358.4481,200.66886 c 0.14934,0.0213 0.34134,0.0213 0.53334,0.0213 0.23466,0 0.512,0 0.78933,0 1.70667,0 3.75467,0.14933 3.75467,2.368 0,2.53866 -2.26134,2.79466 -3.968,2.79466 -0.42667,0 -0.81067,0 -1.10934,-0.0213 z m -1.19466,2.00534 v 4.90667 4.672 h 1.19466 v -4.672 -0.512 c 0.36267,0 0.85334,0.0427 1.36534,0.0427 0.128,0 0.256,0 0.40533,-0.0213 1.10933,0.64 3.712,2.45333 4.18133,5.26933 l 1.088,-0.46933 c -0.42666,-2.51733 -2.112,-4.16 -3.41333,-5.07733 1.42933,-0.42667 2.64533,-1.42934 2.70933,-3.77601 0,-0.0213 -0.0213,-0.0213 -0.0213,-0.0427 -0.0213,-3.17867 -2.51733,-3.54134 -4.62933,-3.54134 -0.61867,0 -1.216,0.0213 -1.68534,0.0213 h -1.19466 c 0,0.59733 -0.0213,1.00266 -0.0213,1.74933 0,0.384 0,0.832 0.0213,1.45067 z"
         style=""
         id="path896" />
      <path
         d="m 368.06942,211.6342 c 0.85334,0.448 2.34667,0.78933 3.86134,0.78933 2.34666,0 4.69333,-0.832 4.69333,-3.60533 0,-2.70934 -2.77333,-3.34934 -3.98933,-3.79734 -1.00267,-0.384 -2.41067,-0.896 -2.41067,-2.41066 0,-1.51467 1.536,-2.28267 3.28533,-2.28267 1.00267,0 2.15467,0.42667 2.92267,0.66133 l 0.53333,-1.19466 c -0.87466,-0.27734 -2.21866,-0.68267 -3.456,-0.68267 -2.32533,0 -4.544,0.93867 -4.544,3.52 0,2.432 2.53867,3.28533 3.24267,3.56267 0.78933,0.32 3.15733,1.10933 3.15733,2.64533 0,1.83467 -1.62133,2.47467 -3.37066,2.47467 -1.30134,0 -2.688,-0.34133 -3.52,-0.832 z"
         style=""
         id="path898" />
      <path
         d="m 385.11473,199.4742 v -0.0213 h -5.07733 v 1.17334 l 3.904,0.0213 c 0,2.98667 0,9.30134 0.0213,11.60534 h 1.19467 c -0.0213,-10.26134 -0.0213,-0.98134 -0.0427,-11.58401 2.32534,0 1.10934,0 4.07467,0 v -1.19466 c -3.02933,0 -1.728,0 -4.07467,0 z"
         style=""
         id="path900" />
      <path
         d="m 403.26937,205.8742 c 0,-2.34667 -0.256,-3.69067 -0.42666,-6.208 h -1.152 c 0.14933,2.56 0.32,4.45866 0.32,6.336 0,1.55733 -1.024,5.12 -4.224,5.12 -2.88,0 -4.05334,-3.328 -4.13867,-5.03467 0,-0.0427 0,-0.0853 0,-0.14933 0,-1.77067 0.21333,-3.712 0.36267,-6.272 h -1.19467 c -0.128,2.60266 -0.36267,4.544 -0.36267,6.42133 0,2.13334 1.13067,6.272 5.26934,6.31467 0,0 0.0213,0 0.0427,-0.0213 4.544,-0.128 5.44,-3.98934 5.48267,-6.40001 0,-0.0427 0.0213,-0.064 0.0213,-0.10666 z"
         style=""
         id="path902" />
      <path
         d="m 411.65334,212.25287 4.20267,-12.56534 -1.152,-0.384 -3.66933,11.09334 -3.75467,-11.09334 -1.152,0.384 4.288,12.56534 z"
         style=""
         id="path904" />
      <path
         d="m 425.84,206.23686 h -1.25866 l -1.70667,4.16001 -3.66933,-10.90134 -1.152,0.384 c 0.74666,2.176 4.20266,12.37334 4.20266,12.37334 h 1.23734 l 1.70666,-4.39467 1.68534,4.39467 h 1.23733 c 0,0 3.392,-10.17601 4.13867,-12.35201 l -1.152,-0.384 c -0.384,1.152 -2.66667,8.02134 -3.60534,10.88001 z"
         style=""
         id="path906" />
      <path
         d="m 438.87461,206.10886 -3.904,6.14401 h 1.28 l 3.43467,-5.39734 3.52,5.39734 h 1.28 l -4.032,-6.14401 3.88267,-6.61333 -1.06667,-0.36267 -3.56267,6.336 -3.776,-6.336 -1.088,0.36267 z"
         style=""
         id="path908" />
      <path
         d="m 451.4186,212.25287 4.33067,-12.84267 -1.152,-0.384 -2.304,6.912 -4.16,-6.80534 -1.04533,0.576 4.672,7.72267 c -0.98134,2.64534 -1.664,4.82134 -1.664,4.82134 z"
         style=""
         id="path910" />
      <path
         d="m 465.49857,200.6262 -7.12533,11.62667 h 1.23733 7.488 l 0.0213,-1.152 c -1.49334,0 -5.22667,0.0213 -6.80534,0.0213 l 7.21067,-11.66934 -1.32267,-0.0213 c 0,0 -5.03467,0.0213 -6.784,0.0213 v 1.17334 z"
         style=""
         id="path912" />
      <path
         d="m 160.57113,234.26887 c 0,2.15467 1.792,4.65067 4.18133,4.65067 1.28,0 2.688,-0.68267 3.54134,-1.96267 0.53333,1.19467 1.408,1.96267 2.38933,1.96267 1.49334,0 1.536,-0.74667 2.38934,-1.664 l -0.85334,-0.832 c -0.91733,1.10933 -0.68266,1.216 -1.536,1.25866 -0.0213,0.0213 -0.0213,0.0213 -0.0213,0.0213 -0.64,0 -1.49333,-1.088 -1.64267,-2.90134 0,-0.10666 0.0213,-0.23466 0.0213,-0.36266 0,-0.0213 0,-0.064 0,-0.10667 0,-2.92267 -1.70667,-4.90667 -4.09601,-4.90667 -0.0213,0 -0.0427,0 -0.064,0 -3.072,0.064 -4.30933,2.96534 -4.30933,4.84267 z m 7.232,0 c 0,0.0853 -0.0213,0.17067 -0.0213,0.256 -0.0853,1.536 -1.10934,3.11467 -3.02934,3.136 -0.0213,0.0213 -0.0427,0.0213 -0.0427,0.0213 -1.57867,0 -2.944,-1.57866 -2.944,-3.41333 0,-2.06933 1.30133,-3.54133 3.09333,-3.54133 0,0 0.0213,0 0.0427,0 1.87733,0.0213 2.90133,1.6 2.90133,3.54133 z"
         style=""
         id="path914" />
      <path
         d="m 177.95777,238.91954 v -1.62134 c 0.768,0.91734 1.92,1.57867 3.41333,1.6 h 0.0427 c 1.64267,0 4.48,-1.344 4.48,-4.50133 0,-3.17867 -1.96267,-4.97067 -4.52267,-4.97067 -1.49333,0 -2.64533,0.68267 -3.41333,1.6 v -1.57866 c 0,-1.92 -0.256,-4.11734 -1.216,-4.82134 l -0.98133,0.704 c 0.96,0.832 1.00266,2.24 1.00266,4.11734 0,2.15466 0.0213,7.59466 0.0213,9.472 z m 3.30667,-1.152 c -2.048,0 -3.22134,-1.96267 -3.30667,-3.66934 v -0.128 c 0,-1.792 1.64267,-3.41333 3.392,-3.41333 h 0.0427 c 1.94133,0.0213 3.24266,1.96267 3.24266,3.84 0,1.55733 -1.408,3.37067 -3.37066,3.37067 z"
         style=""
         id="path916" />
      <path
         d="m 197.24306,237.59687 -0.896,-0.87467 c -0.576,0.55467 -1.62133,1.06667 -2.58133,1.06667 -1.51467,0 -3.17867,-1.25867 -3.17867,-3.56267 0,-1.792 1.70667,-3.37066 3.47734,-3.37066 1.32266,0 1.92,0.61866 2.368,0.91733 l 0.85333,-0.96 c -0.66133,-0.46933 -1.62133,-1.25867 -3.22133,-1.25867 -3.05067,0 -4.672,2.90134 -4.672,4.77867 0,2.112 1.472,4.71467 4.544,4.71467 1.024,0 2.432,-0.64 3.30666,-1.45067 z"
         style=""
         id="path918" />
      <path
         d="m 205.15772,237.76754 c -1.96266,0 -3.37066,-1.81334 -3.37066,-3.37067 0,-1.87733 1.30133,-3.81867 3.24266,-3.84 h 0.0427 c 1.74933,0 3.392,1.62133 3.392,3.41333 v 0.128 c -0.0853,1.70667 -1.25867,3.66934 -3.30667,3.66934 z m 4.48,-1.30134 c 0,-1.87733 0.0213,-4.864 0.0213,-7.01866 0,-1.87734 -0.21334,-3.66934 -0.72534,-4.88534 l -1.06666,0.55467 c 0.46933,1.06667 0.59733,2.41067 0.59733,4.33067 v 1.57866 c -0.768,-0.91733 -1.92,-1.6 -3.41333,-1.6 -2.56,0 -4.52267,1.792 -4.52267,4.97067 0,3.15733 2.83733,4.50133 4.48,4.50133 h 0.0427 c 1.49333,-0.0213 2.64533,-0.68266 3.41333,-1.6 0.53333,1.19467 1.45067,1.83467 2.432,1.83467 1.49333,0 1.536,-0.74667 2.38933,-1.664 l -0.85333,-0.832 c -0.91733,1.10933 -0.68267,1.216 -1.536,1.25867 h -0.0213 c -0.384,0 -1.23734,-0.704 -1.23734,-1.42934 z"
         style=""
         id="path920" />
      <path
         d="m 216.91236,232.51954 c 0,-1.408 1.57867,-2.15467 2.73067,-2.15467 2.00533,0 2.624,1.17333 2.624,2.304 0,0.87467 -0.91733,1.94133 -2.70933,1.94133 -1.60001,0 -2.64534,-0.66133 -2.64534,-2.09066 z m 6.656,5.07733 -0.68266,-1.024 c -0.576,0.53333 -2.13334,1.17333 -3.02934,1.216 h -0.10666 c -1.51467,0 -2.75201,-1.25867 -3.17867,-3.136 0.64,1.06667 2.26133,1.13067 3.072,1.13067 2.26133,0 3.79733,-1.19467 3.79733,-3.30667 0,-2.944 -2.752,-3.41333 -3.79733,-3.41333 -3.072,0 -4.26667,2.368 -4.26667,5.056 0,2.15466 1.45067,4.8 4.43734,4.928 h 0.10666 c 1.024,0 2.79467,-0.72534 3.648,-1.45067 z"
         style=""
         id="path922" />
      <path
         d="m 229.11501,231.81554 v 3.52 c 0,3.34933 -2.13333,3.66933 -2.13333,3.66933 l 0.66133,1.00267 c 0,0 2.66667,-0.81067 2.66667,-4.672 v -3.52 l 2.70933,-0.34134 v -0.66133 c -0.832,0 -1.792,0 -2.70933,0.0213 0,-0.55466 0.0213,-1.024 0.0213,-1.38666 0,-1.408 0.064,-3.62667 1.36533,-3.62667 0.64,0 0.768,0.0853 0.96,0.17067 l 1.024,-0.448 c -0.23466,-0.32 -0.96,-0.81067 -1.96266,-0.81067 -2.58134,0 -2.58134,3.2 -2.58134,4.71467 v 1.38666 h -1.472 l 0.0213,0.704 z"
         style=""
         id="path924" />
      <path
         d="m 243.40833,234.26887 c 0,0.0853 -0.0213,0.17067 -0.0213,0.256 -0.0853,1.536 -1.10933,3.11467 -3.02933,3.136 -1.62134,0 -2.96534,-1.55733 -2.98667,-3.392 0,-2.06933 1.30133,-3.54133 3.09333,-3.54133 1.92,0 2.944,1.57866 2.944,3.54133 z m 0,3.30667 c 0.0213,0.10666 0.192,1.23733 0.192,2.13333 0,0.34133 -0.0213,0.66133 -0.0853,0.87467 -0.448,1.30133 -1.728,1.42933 -2.96533,1.42933 -2.176,0 -3.328,-1.00267 -3.328,-1.664 0,-0.064 0,-0.128 0.0427,-0.192 l -1.17333,-0.34133 c -0.0427,0.128 -0.0853,0.27733 -0.0853,0.46933 0,1.04533 0.832,2.90133 4.544,2.90133 2.38933,0 3.904,-0.93866 4.26666,-2.58133 0.0427,-0.23467 0.064,-0.49067 0.064,-0.74667 0,-0.832 -0.21333,-1.77066 -0.23466,-2.85866 -0.0213,-0.34134 -0.0213,-0.72534 -0.0213,-1.10934 0,-0.74666 0.0213,-1.42933 0.0213,-1.45066 0,-3.072 -1.664,-5.01334 -4.16,-5.01334 -3.072,0.064 -4.30934,2.96534 -4.30934,4.84267 0,2.15467 1.792,4.65067 4.18134,4.65067 1.06666,0 2.19733,-0.46934 3.05066,-1.344 z"
         style=""
         id="path926" />
      <path
         d="m 249.74429,231.0262 v -1.57866 c 0,-1.92 -0.256,-4.11734 -1.216,-4.82134 l -0.98133,0.704 c 0.96,0.832 1.00267,2.24 1.00267,4.11734 0,2.15466 0.0213,7.59466 0.0213,9.472 h 1.19467 v -4.544 -0.256 c 0,-1.89867 1.57866,-3.392 3.392,-3.392 h 0.0427 c 1.92,0.0213 3.24266,1.62133 3.24266,3.648 v 0.0427 4.50134 h 1.23734 v -4.52267 c 0,-3.17867 -1.96267,-4.97067 -4.52267,-4.97067 -1.49334,0 -2.64534,0.68267 -3.41334,1.6 z"
         style=""
         id="path928" />
      <path
         d="m 262.71493,234.2902 c 0,1.92 0.23467,3.98934 1.19467,4.69334 l 0.98133,-0.704 c -0.96,-0.832 -0.98133,-2.112 -1.00267,-3.98934 v -3.54133 h -1.17333 z m -0.10667,-6.37866 v 1.51466 h 1.36534 v -1.51466 z"
         style=""
         id="path930" />
      <path
         d="m 269.62691,238.91954 c -0.0213,1.68533 -0.36266,2.79466 -1.06666,3.712 l 1.088,0.55466 c 0.832,-0.98133 1.13066,-2.58133 1.152,-4.26666 l 0.0213,-8.17067 h -1.17333 z m -0.0853,-11.008 v 1.51466 h 1.36533 v -1.51466 z"
         style=""
         id="path932" />
      <path
         d="m 277.84024,229.19154 v -4.416 l -1.152,0.0213 c 0,1.87733 -0.0427,7.296 -0.064,9.45067 0,1.87733 -0.0213,4.672 -0.0213,4.672 h 1.216 v -4.672 l 4.75734,4.672 0.87466,-0.85334 -4.56533,-4.56533 4.56533,-3.84 -0.832,-0.85333 -4.8,3.92533 c 0,-1.30133 0.0213,-3.09333 0.0213,-3.54133 z"
         style=""
         id="path934" />
      <path
         d="m 288.50687,229.31954 c 0,0.68266 0.0213,4.56533 0.0213,4.928 0,1.92 1.00266,3.968 1.96266,4.672 l 0.91734,-0.64 c -0.98134,-0.832 -1.68534,-2.15467 -1.68534,-4.032 -0.0213,-2.15467 -0.0213,-7.59467 -0.0213,-9.472 h -1.19467 z"
         style=""
         id="path936" />
      <path
         d="m 303.20551,238.91954 h 1.23734 v -4.52267 c 0,-0.832 -0.10667,-1.55733 -0.29867,-2.19733 0.36267,-0.87467 1.68533,-1.49334 2.58134,-1.49334 1.89866,0.0213 2.432,1.6 2.432,3.60534 0,0.0427 0,0.0853 0,0.128 -0.0213,0.512 -0.0213,0.98133 -0.0213,1.45066 0,0.96 0.0213,1.87734 0.0213,3.05067 h 1.23733 v -4.52267 c 0,-3.17866 -1.152,-4.992 -3.712,-4.992 -0.96,0 -2.47467,0.61867 -3.22134,1.472 -0.704,-0.96 -1.45066,-1.45066 -2.79466,-1.45066 -1.57867,0 -2.66667,0.74666 -3.34934,1.728 -0.17066,-0.768 -0.46933,-1.408 -0.91733,-1.728 l -1.00267,0.704 c 0.96,0.81066 1.00267,2.048 1.00267,3.81866 v 0.17067 4.8 h 1.19467 v -4.8 c 0,-1.92 1.25866,-3.41333 3.072,-3.41333 0,0 0.0213,0 0.0427,0.0213 1.89867,0 2.496,1.57867 2.496,3.56267 0,0.0427 0,0.0853 0,0.128 -0.0213,0.512 -0.0213,0.98133 -0.0213,1.45066 0,0.96 0.0213,1.87734 0.0213,3.02934 z"
         style=""
         id="path938" />
      <path
         d="m 322.38414,238.91954 h 1.23733 v -4.52267 c 0,-3.17867 -1.96267,-4.97067 -4.52267,-4.97067 -1.664,0 -2.85866,0.832 -3.62666,1.89867 -0.17067,-0.85333 -0.46934,-1.536 -0.93867,-1.89867 l -1.024,0.704 c 0.98133,0.81067 1.024,2.048 1.024,3.84 v 0.14934 4.8 h 1.19467 v -4.8 c 0,-1.89867 1.55733,-3.392 3.392,-3.392 h 0.0213 c 1.94133,0.0213 3.264,1.62133 3.264,3.648 0,0 0,0.0213 -0.0213,0.0427 v 1.472 z"
         style=""
         id="path940" />
      <path
         d="m 331.15211,237.78887 c -2.048,0 -3.22133,-1.96267 -3.30666,-3.66933 0,-0.0427 0,-0.0853 0,-0.128 0,-1.792 1.664,-3.41334 3.41333,-3.41334 0,0 0.0213,0 0.0213,0 1.94134,0.0213 3.24267,1.96267 3.24267,3.84 0,1.55734 -1.408,3.37067 -3.37067,3.37067 z m -4.50133,-3.66933 c 0,2.15466 1.36533,4.94933 4.45867,4.94933 0,0 0.0213,0 0.0213,-0.0213 2.88,-0.0213 4.58667,-2.24 4.62933,-4.65067 0.0213,-0.0213 0.0213,-0.0427 0.0213,-0.0853 0,-2.368 -1.57867,-4.992 -4.544,-5.03467 -0.0213,0 -0.0427,0 -0.064,0 -3.008,0 -4.52267,2.98667 -4.52267,4.84267 z"
         style=""
         id="path942" />
      <path
         d="m 340.64542,237.57554 c 0.85333,0.87466 1.984,1.344 3.05067,1.344 2.38933,0 4.18133,-2.496 4.18133,-4.65067 0,-1.87733 -1.23733,-4.77867 -4.30933,-4.84267 h -0.0853 c -2.368,0 -4.07466,1.96267 -4.07466,4.90667 v 0.10667 c 0,0.0853 0.0213,3.86133 0.0213,6.42133 0,1.30133 -0.40533,1.83467 -0.40533,1.83467 l 1.10933,0.49066 c 0,0 0.49067,-1.13066 0.49067,-2.34666 0,-1.536 0,-3.264 0,-3.264 0,0 0,0 0.0213,0 z m 0,-3.30667 c 0,-1.94133 1.024,-3.52 2.90133,-3.54133 h 0.0427 c 1.792,0 3.09333,1.472 3.09333,3.54133 -0.0213,1.81333 -1.36533,3.392 -2.944,3.392 h -0.0427 c -1.92,-0.0213 -2.944,-1.6 -3.02934,-3.136 0,-0.0853 -0.0213,-0.17067 -0.0213,-0.256 z"
         style=""
         id="path944" />
      <path
         d="m 358.3094,237.57554 c 0,0 0,0 0,0 0.0213,0 0.0213,0.61866 0.0213,1.42933 0,1.664 -0.0213,4.16 -0.0213,4.16 l 1.216,0.0213 c 0,0 0.0213,-8.61866 0.0213,-8.74666 v -0.10667 c 0,-2.944 -1.70667,-4.90667 -4.07467,-4.90667 h -0.0853 c -3.072,0.064 -4.30933,2.96534 -4.30933,4.84267 0,2.15467 1.792,4.65067 4.18133,4.65067 1.06667,0 2.19733,-0.46934 3.05067,-1.344 z m 0,-3.30667 c 0,0.0853 -0.0213,0.17067 -0.0213,0.256 -0.0853,1.536 -1.10933,3.11467 -3.02933,3.136 h -0.0427 c -1.57866,0 -2.92266,-1.57867 -2.944,-3.392 0,-2.06933 1.30134,-3.54133 3.09334,-3.54133 h 0.0427 c 1.87734,0.0213 2.90134,1.6 2.90134,3.54133 z"
         style=""
         id="path946" />
      <path
         d="m 371.79202,231.2822 c -0.59733,-0.704 -1.42933,-1.6 -3.264,-1.6 -1.57866,0 -2.66666,0.768 -3.34933,1.77067 -0.192,-0.768 -0.46933,-1.38667 -0.91733,-1.70667 l -1.00267,0.704 c 0.78933,0.87467 1.00267,1.728 1.00267,3.49867 v 0.17067 4.8 h 1.19466 v -4.8 c 0,-1.89867 1.25867,-3.136 3.072,-3.136 h 0.0427 c 1.32267,0 1.6,0.32 2.21867,1.10933 z"
         style=""
         id="path948" />
      <path
         d="m 378.34136,234.75954 c 1.152,0.29866 1.6,1.00266 1.6,1.62133 0,0.27733 -0.0853,0.53333 -0.23467,0.704 -0.46933,0.576 -1.024,0.68267 -1.87733,0.68267 -1.19467,0 -2.00533,-0.46934 -2.624,-1.25867 l -1.00267,0.81067 c 0.59734,0.704 2.176,1.6 3.86134,1.62133 0.0213,0.0213 0.064,0.0213 0.10666,0.0213 1.024,0 1.74934,-0.29866 2.38934,-1.04533 0.448,-0.53333 0.704,-1.23733 0.704,-1.6 0,-0.32 -0.40534,-2.13333 -2.41067,-2.624 -1.6,-0.384 -2.41067,-0.87467 -2.41067,-1.792 0,-0.87467 0.98134,-1.28 1.94134,-1.28 h 0.0427 c 1.088,0 1.57867,0.256 2.21867,0.768 l 0.81067,-1.024 c -0.29867,-0.34133 -1.23734,-1.04533 -3.072,-1.04533 -2.00534,0 -3.22134,0.87466 -3.22134,2.79466 0,0.98134 1.51467,2.24 3.17867,2.64534 z"
         style=""
         id="path950" />
      <path
         d="m 386.29866,224.60487 0.0213,4.84267 h -1.32267 l -0.0213,0.96 h 1.32266 c 0,1.408 0.0213,3.56266 0.0213,3.84 0,1.92 1.00266,3.968 1.96266,4.672 l 0.91734,-0.64 c -0.98134,-0.832 -1.68534,-2.15467 -1.68534,-4.032 -0.0213,-0.87467 -0.0213,-2.304 -0.0213,-3.81867 h 2.176 v -0.98133 h -2.15467 l -0.0213,-4.84267 z"
         style=""
         id="path952" />
      <path
         d="m 394.81065,229.40487 h -1.23733 v 4.52267 c 0,3.17866 1.96266,4.97066 4.52266,4.97066 1.64267,0 2.85867,-0.832 3.62667,-1.89866 0.17067,0.85333 0.46933,1.536 0.96,1.89866 l 0.98133,-0.704 c -0.93866,-0.81066 -0.98133,-2.048 -0.98133,-3.84 v -0.14933 -4.8 h -1.19467 v 4.8 c 0,1.92 -1.57866,3.41333 -3.41333,3.41333 0,0 -0.0213,0 -0.0213,-0.0213 -1.94134,0 -3.264,-1.6 -3.264,-3.62667 0,-0.0213 0,-0.0427 0.0213,-0.064 z"
         style=""
         id="path954" />
      <path
         d="m 410.55461,238.91954 c 0.768,-2.56 2.32534,-7.06134 3.09334,-9.23734 l -1.152,-0.384 c -0.384,1.152 -1.62134,4.90667 -2.56,7.76534 l -2.60267,-7.744 -1.152,0.384 c 0.74667,2.176 2.32533,6.67733 3.136,9.216 z"
         style=""
         id="path956" />
      <path
         d="m 423.24794,232.90354 h -1.25867 l -1.70666,4.16 -2.51734,-7.57334 -1.152,0.384 c 0.74667,2.176 3.05067,9.04534 3.05067,9.04534 h 1.23733 l 1.70667,-4.39467 1.68533,4.39467 h 1.23734 c 0,0 2.304,-6.89067 3.072,-9.06667 l -1.152,-0.384 c -0.384,1.152 -1.6,4.736 -2.53867,7.59467 z"
         style=""
         id="path958" />
      <path
         d="m 436.02662,234.05554 c -0.0213,0 -0.0213,0.0213 -0.0213,0.0213 l 2.98667,-4.62933 -1.152,-0.384 -2.58133,4.37333 -2.73067,-4.33067 -1.152,0.384 3.05067,4.58667 -3.09334,4.84267 h 1.28 l 2.624,-4.096 2.66667,4.096 h 1.28 z"
         style=""
         id="path960" />
      <path
         d="m 447.86658,234.6742 c 0.576,-1.728 1.36533,-4.07466 1.664,-4.928 l -1.152,-0.384 c -0.42667,1.28 -1.472,4.288 -2.304,6.784 -0.53333,-1.19466 -3.05067,-6.76266 -3.05067,-6.76266 l -1.152,0.384 3.60534,8.17066 c -0.0853,0.23467 -0.14934,0.448 -0.21334,0.64 -0.896,2.816 -2.304,3.62667 -3.54133,3.62667 l -0.0427,1.024 c 1.57867,-0.0427 3.41334,-0.34133 4.736,-4.288 0.10667,-0.34133 1.23734,-3.62667 1.45067,-4.26667 z"
         style=""
         id="path962" />
      <path
         d="m 457.82924,230.6422 -5.248,8.27734 h 1.23734 5.61066 v -1.13067 l -4.77866,0.0213 5.29066,-8.32 -1.32266,-0.0213 c -1.70667,0 -3.60534,0.0213 -5.35467,0.0213 v 1.152 z"
         style=""
         id="path964" />
      <path
         d="m 227.09896,254.79154 c 0,1.94134 0,4.20267 0,6.12267 0,1.92 0.53334,3.75467 1.28,4.69333 l 0.91734,-0.64 c -0.55467,-0.87466 -1.00267,-2.176 -1.00267,-4.032 0,-2.15466 0,-5.67466 0,-7.552 h -1.19467 l -3.008,1.81334 0.66134,0.72533 z"
         style=""
         id="path966" />
      <path
         d="m 237.08295,259.44221 c -2.752,1.32267 -3.81866,4.20267 -3.86133,6.03733 l -0.0427,0.10667 h 1.17334 5.73866 l 0.0213,-1.06667 -5.52534,-0.0427 c 0.14934,-1.25867 1.10934,-2.90134 3.41334,-4.33067 1.45066,-0.896 2.112,-2.34667 2.112,-3.66933 0,-1.70667 -1.6,-3.52001 -3.52,-3.52001 0,0 0,0 -0.0213,0 -1.83466,0 -2.752,1.00267 -3.34933,1.70667 l 0.896,0.64 c 0.61867,-0.78933 1.19467,-1.10933 2.51733,-1.17333 0.0427,0 0.064,-0.0213 0.10667,-0.0213 1.10933,0 2.112,1.32266 2.112,2.47466 0,1.06667 -0.55467,2.28267 -1.77067,2.85867 z"
         style=""
         id="path968" />
      <path
         d="m 244.14425,265.11688 c 1.19467,0.46933 1.92,0.64 3.072,0.64 1.984,0 4.096,-1.216 4.096,-3.66934 0,-1.856 -1.17333,-3.02933 -2.28267,-3.456 0.91734,-0.72533 1.472,-1.17333 1.51467,-2.51733 0,-2.34667 -1.49333,-3.008 -2.96533,-3.008 -1.19467,0 -2.432,0.384 -3.11467,0.68266 v 1.08801 c 0.68267,-0.256 1.83467,-0.59734 2.85867,-0.59734 1.13066,0 2.09066,0.512 2.09066,1.856 0,1.64267 -2.21866,2.304 -3.49866,2.32534 l 0.0213,1.04533 h 0.064 c 0.36267,0 0.832,-0.0427 1.32267,-0.0427 1.32266,0 2.83733,0.55467 2.83733,2.64534 0,1.536 -1.57867,2.496 -3.11467,2.496 -1.00266,0 -1.45066,-0.0853 -2.88,-0.576 z"
         style=""
         id="path970" />
      <path
         d="m 259.88825,253.04221 -0.0213,6.95467 h -4.33067 c 0.49067,-2.28267 0.81067,-4.608 0.832,-6.97601 h -1.19467 c 0,0.128 0,0.23467 0,0.34134 0,3.43467 -0.64,5.44 -1.10933,7.82933 h 0.0213 1.17334 4.58666 l -0.0213,4.416 h 1.19467 l 0.0213,-4.416 h 1.36533 v -1.19466 h -1.36533 l 0.0213,-6.95467 z"
         style=""
         id="path972" />
      <path
         d="m 265.00824,264.26354 c 0.87467,0.81067 2.28267,1.45067 3.30667,1.45067 h 0.10666 c 2.98667,-0.128 4.416,-2.06933 4.416,-4.224 0,-1.87733 -1.088,-4.45867 -4.13866,-4.50133 h -0.0853 c -0.59733,0 -1.088,0.128 -1.51466,0.29866 v -2.90133 l 5.07733,0.0427 v -1.19467 l -6.25067,-0.0427 -0.0213,5.65334 h 1.19467 v -0.128 c 0.40533,-0.256 0.74666,-0.40534 1.55733,-0.42667 h 0.0427 c 1.77066,0 2.944,1.30133 2.944,3.09333 v 0.10667 c -0.064,2.24 -1.64267,2.96533 -3.15734,2.96533 h -0.10666 c -0.896,-0.0427 -1.92,-0.53333 -2.47467,-1.06666 z"
         style=""
         id="path974" />
      <path
         d="m 284.29356,255.00488 c -0.768,-1.21601 -2.112,-2.00534 -3.47733,-2.00534 -2.24,0 -4.544,2.112 -4.544,7.872 0,2.21867 1.42933,4.84267 3.94667,4.84267 1.45066,0 4.05333,-0.98133 4.05333,-3.92533 0,-2.688 -1.856,-3.98934 -3.75467,-3.98934 -1.088,0 -2.176,0.42667 -2.944,1.25867 0.512,-3.2 1.55734,-4.77867 3.09334,-4.77867 1.49333,0 2.13333,0.66134 2.624,1.23734 z m -6.69866,6.74133 c 0,-1.51467 1.344,-2.58133 2.944,-2.58133 1.792,0 2.53866,1.36533 2.53866,2.79466 0,1.51467 -1.45066,2.53867 -2.688,2.53867 -1.728,0 -2.79466,-1.536 -2.79466,-2.752 z"
         style=""
         id="path976" />
      <path
         d="m 287.04556,253.49021 0.0213,1.17333 h 6.4 c -0.10667,3.60534 -4.77867,4.62934 -4.8,10.92267 h 1.19466 c 0.10667,-6.25067 5.01334,-6.12267 5.01334,-12.11734 -2.90134,0 -4.37334,0.0213 -7.82934,0.0213 z"
         style=""
         id="path978" />
      <path
         d="m 301.61622,264.69021 c -1.74934,0 -2.85867,-1.13067 -2.85867,-2.64533 0,-1.57867 1.792,-2.58134 2.944,-2.58134 1.216,0 2.752,1.088 2.752,2.85867 0,1.49333 -1.152,2.368 -2.83733,2.368 z m 0.192,-11.66934 c -2.66667,0 -3.328,1.66401 -3.328,3.17867 0,1.36534 0.17066,1.83467 1.23733,2.64534 -1.30133,0.93866 -1.984,1.92 -1.984,3.2 0,2.06933 1.23733,3.712 3.904,3.712 2.47467,-0.0213 3.84,-1.13067 3.88267,-3.456 0,-1.62134 -0.576,-2.47467 -1.83467,-3.41334 1.00267,-0.68266 1.25867,-1.38666 1.25867,-2.58133 0,-1.42933 -0.55467,-3.28534 -3.136,-3.28534 z m -0.064,5.20534 c -1.77067,0 -2.28267,-0.512 -2.28267,-1.94133 0,-1.13067 0.55467,-2.048 2.34667,-2.048 1.664,0 2.09066,0.81066 2.09066,2.09066 0,1.45067 -0.53333,1.89867 -2.15466,1.89867 z"
         style=""
         id="path980" />
      <path
         d="m 308.74153,264.47688 c 1.152,0.72533 2.13334,1.216 3.69067,1.216 3.11467,0 4.096,-2.15467 4.096,-7.82934 0,-3.28533 -1.42933,-4.84267 -3.92533,-4.84267 -1.856,0 -3.712,1.23734 -3.712,4.18134 0,2.432 1.856,3.62667 3.66933,3.62667 1.00267,0 2.00533,-0.36267 2.66667,-1.088 -0.0427,3.008 -0.59734,4.75733 -2.64534,4.75733 -1.23733,0 -1.70666,-0.064 -3.09333,-0.87467 z m 6.464,-7.424 c 0,1.51466 -0.93866,2.58133 -2.53866,2.58133 -1.792,0 -2.58134,-1.17333 -2.58134,-2.60267 0,-1.51466 1.32267,-2.77333 2.56,-2.77333 1.728,0 2.56,1.57867 2.56,2.79467 z"
         style=""
         id="path982" />
      <path
         d="m 324.59219,264.45554 c -0.0213,0.0213 -0.0213,0.0213 -0.0427,0.0213 -2.19733,0 -3.30667,-2.77334 -3.392,-4.48 v -0.128 c 0,-1.792 0.832,-5.35467 3.52,-5.39734 h 0.0427 c 2.688,0.128 3.328,3.56267 3.328,5.44 0,1.55734 -0.78934,4.52267 -3.456,4.544 z m -4.62934,-4.45866 c 0,2.15466 1.25867,5.73866 4.52267,5.73866 0.0213,0 0.0213,0 0.0427,-0.0213 h 0.0427 c 0.0213,0.0213 0.0427,0.0213 0.064,0.0213 3.47734,0 4.62934,-3.43466 4.65067,-5.84533 v -0.0853 c 0,-2.368 -0.68267,-6.57067 -4.608,-6.63467 h -0.064 c -4.01067,0.10666 -4.65067,4.97067 -4.65067,6.82667 z"
         style=""
         id="path984" />
      <path
         d="m 333.65885,263.47421 c -0.64,0 -1.17333,0.46933 -1.17333,1.17333 0.0213,0.576 0.49067,1.04534 1.06667,1.06667 0.68266,0 1.17333,-0.53333 1.17333,-1.17333 0,-0.59734 -0.46933,-1.06667 -1.06667,-1.06667 z"
         style=""
         id="path986" />
      <path
         d="m 339.20551,257.92754 c -0.64,0 -1.17333,0.46934 -1.17333,1.17334 0.0213,0.576 0.49066,1.04533 1.06666,1.06666 0.68267,0 1.17334,-0.53333 1.17334,-1.17333 0,-0.59733 -0.46934,-1.06667 -1.06667,-1.06667 z m -0.0427,5.54667 c -0.64,0 -1.17333,0.46933 -1.17333,1.17333 0.0213,0.576 0.49067,1.04534 1.06667,1.06667 0.68266,0 1.17333,-0.53333 1.17333,-1.17333 0,-0.59734 -0.46933,-1.06667 -1.06667,-1.06667 z"
         style=""
         id="path988" />
      <path
         d="m 343.89883,264.00754 c -0.0213,1.024 -0.55467,2.13334 -0.98134,3.05067 l 0.46934,0.49067 c 0.93866,-0.78934 1.92,-2.66667 2.09066,-3.73334 -0.49066,0.128 -1.04533,0.17067 -1.57866,0.192 z"
         style=""
         id="path990" />
      <path
         d="m 350.21348,258.86621 c -0.64,0 -1.17333,0.46933 -1.17333,1.17333 0.0213,0.576 0.49067,1.04534 1.06667,1.06667 0.68266,0 1.17333,-0.53333 1.17333,-1.17333 0,-0.59734 -0.46933,-1.06667 -1.06667,-1.06667 z m -0.81066,5.14133 c -0.0213,1.024 -0.55467,2.13334 -0.98134,3.05067 l 0.46934,0.49067 c 0.93866,-0.78934 1.92,-2.66667 2.09066,-3.73334 -0.49066,0.128 -1.04533,0.17067 -1.57866,0.192 z"
         style=""
         id="path992" />
      <path
         d="m 356.84813,251.44221 c -1.25866,2.112 -1.728,4.75733 -1.728,7.31733 0,3.37067 0.81067,6.61334 1.77067,8.384 l 0.81067,-0.46933 c -0.896,-1.89867 -1.49334,-4.88533 -1.49334,-7.89333 0,-2.47467 0.40534,-4.97067 1.42934,-6.89067 z"
         style=""
         id="path994" />
      <path
         d="m 363.20545,256.51954 v 3.15734 l -2.34667,-1.36534 -1.19467,0.49067 3.17867,1.856 -3.17867,1.81333 1.216,0.46934 2.32534,-1.32267 v 3.072 h 1.19466 v -3.15733 l 2.496,1.42933 1.088,-0.55467 -3.09333,-1.74933 3.09333,-1.77067 -1.17333,-0.512 -2.41067,1.38667 v -3.24267 z"
         style=""
         id="path996" />
      <path
         d="m 372.08009,263.92221 c -0.512,0 -0.91733,0.36267 -0.91733,0.91733 0,0.46934 0.384,0.85334 0.832,0.85334 0.53333,0 0.93866,-0.42667 0.93866,-0.93867 0,-0.46933 -0.384,-0.832 -0.85333,-0.832 z m -0.832,-11.66934 0.23467,9.57867 h 1.04533 l 0.29867,-9.57867 z"
         style=""
         id="path998" />
      <path
         d="m 380.57074,263.92221 c -0.55467,0 -0.98133,0.384 -0.98133,0.96 0,0.46933 0.40533,0.85333 0.87466,0.87467 0.576,0 0.98134,-0.448 0.98134,-0.96 0,-0.49067 -0.384,-0.87467 -0.87467,-0.87467 z m 1.152,-6.48533 c -1.62133,1.024 -1.92,1.87733 -1.92,2.85866 0,0.59734 0.128,1.28 0.128,2.048 l 1.28,0.0427 c -0.0213,-0.768 -0.14933,-1.45067 -0.14933,-2.048 0,-0.85333 0.256,-1.536 1.51466,-2.176 1.28,-0.64 1.856,-1.77067 1.856,-2.88 0,-1.57867 -1.13066,-3.11467 -2.96533,-3.11467 -1.83467,0 -3.264,0.91733 -3.86133,1.62133 l 1.00266,0.81067 c 0.61867,-0.78933 1.51467,-1.25867 2.83734,-1.25867 1.024,0 1.64266,0.83201 1.64266,1.81334 0,0.78933 -0.40533,1.68533 -1.36533,2.28267 z"
         style=""
         id="path1000" />
      <path
         d="m 389.23206,252.78621 h -1.51467 l 0.53334,3.264 h 0.91733 z"
         style=""
         id="path1002" />
      <path
         d="m 393.66938,251.44221 -0.78934,0.448 c 1.00267,1.92 1.408,4.416 1.408,6.89067 0,3.008 -0.59733,5.99466 -1.472,7.89333 l 0.81067,0.46933 c 0.93867,-1.77066 1.74933,-5.01333 1.74933,-8.384 0,-2.56 -0.46933,-5.20533 -1.70666,-7.31733 z"
         style=""
         id="path1004" />
    </g>
    <g
       aria-label="@fullyAchromatic"
       transform="matrix(0.26458333,0,0,0.26458333,6.5481037,-9.7553379)"
       style="font-style:normal;font-variant:normal;font-weight:normal;font-stretch:normal;font-size:21.33333397px;line-height:1.25;font-family:Achromatic-wm;-inkscape-font-specification:Achromatic-wm;text-align:center;letter-spacing:0px;word-spacing:0px;text-anchor:middle;fill:#e6e6e6;fill-opacity:1;stroke:none"
       id="flowRoot32">
      <path
         d="m 223.05876,291.88735 c 0.0213,2.06934 1.45067,4.65067 4.16,4.65067 1.216,0 2.51733,-0.59733 3.37067,-1.70667 0.34133,1.00267 0.96,1.64267 1.984,1.64267 1.92,0 2.32533,-1.664 2.34666,-4.50133 0,-0.0427 0,-0.10667 0,-0.14934 0,-4.58666 -1.792,-8.128 -7.552,-8.128 -6.16533,0 -7.616,4.84267 -7.616,8.128 0,0.0213 0,0.0427 0.0213,0.064 0.0427,4.01067 3.456,7.97867 7.40266,7.97867 1.55734,0 2.60267,-0.36267 3.41334,-0.704 l 0.0427,-1.36533 c -0.512,0.36266 -1.36533,0.91733 -3.456,0.91733 -3.008,0 -6.35733,-3.49867 -6.35733,-6.86933 0,-2.64534 1.408,-7.04 6.592,-7.04 4.58667,0 6.25067,3.49866 6.25067,7.06133 0,0.0213 0,0.0427 0,0.064 0,1.984 -0.192,3.37067 -1.04534,3.41333 -0.0213,0.0213 -0.0427,0.0213 -0.0427,0.0213 -0.74667,0 -1.04534,-1.216 -1.06667,-3.24267 v -0.064 c 0.0213,-0.0213 0.0213,-0.064 0.0213,-0.0853 0,-2.98667 -1.792,-4.928 -4.18133,-4.928 -3.05067,0 -4.288,2.66666 -4.288,4.84266 z m 7.232,0 c -0.0213,0.10667 -0.0213,0.21334 -0.0213,0.32 -0.10667,1.51467 -1.19467,3.072 -3.02934,3.072 -1.6,0 -2.96533,-1.68533 -2.98666,-3.392 0,-1.92 1.28,-3.54133 3.136,-3.54133 1.87733,0 2.90133,1.6 2.90133,3.54133 z"
         style=""
         id="path829" />
      <path
         d="m 240.70141,289.43402 v 3.52 c 0,3.34933 -2.13333,3.66933 -2.13333,3.66933 l 0.66133,1.00267 c 0,0 2.66667,-0.81067 2.66667,-4.672 v -3.52 l 2.70933,-0.34133 v -0.66134 c -0.832,0 -1.792,0 -2.70933,0.0213 0,-0.55467 0.0213,-1.024 0.0213,-1.38667 0,-1.408 0.064,-3.62667 1.36534,-3.62667 0.64,0 0.768,0.0853 0.96,0.17067 l 1.024,-0.448 c -0.23467,-0.32 -0.96,-0.81067 -1.96267,-0.81067 -2.58133,0 -2.58133,3.2 -2.58133,4.71467 v 1.38667 h -1.472 l 0.0213,0.704 z"
         style=""
         id="path831" />
      <path
         d="m 249.44807,287.02335 h -1.23733 v 4.52267 c 0,3.17867 1.96267,4.97067 4.52267,4.97067 1.64266,0 2.85866,-0.832 3.62666,-1.89867 0.17067,0.85333 0.46934,1.536 0.96,1.89867 l 0.98134,-0.704 c -0.93867,-0.81067 -0.98134,-2.048 -0.98134,-3.84 v -0.14934 -4.8 h -1.19466 v 4.8 c 0,1.92 -1.57867,3.41334 -3.41334,3.41334 0,0 -0.0213,0 -0.0213,-0.0213 -1.94133,0 -3.264,-1.6 -3.264,-3.62666 0,-0.0213 0,-0.0427 0.0213,-0.064 z"
         style=""
         id="path833" />
      <path
         d="m 262.14137,286.93802 c 0,0.68267 0.0213,4.56533 0.0213,4.928 0,1.92 1.00266,3.968 1.96266,4.672 l 0.91734,-0.64 c -0.98134,-0.832 -1.68534,-2.15467 -1.68534,-4.032 -0.0213,-2.15467 -0.0213,-7.59467 -0.0213,-9.472 h -1.19467 z"
         style=""
         id="path835" />
      <path
         d="m 269.45868,286.93802 c 0,0.68267 0.0213,4.56533 0.0213,4.928 0,1.92 1.00267,3.968 1.96267,4.672 l 0.91733,-0.64 c -0.98133,-0.832 -1.68533,-2.15467 -1.68533,-4.032 -0.0213,-2.15467 -0.0213,-7.59467 -0.0213,-9.472 h -1.19466 z"
         style=""
         id="path837" />
      <path
         d="m 281.53331,292.29269 c 0.576,-1.728 1.36533,-4.07467 1.664,-4.928 l -1.152,-0.384 c -0.42667,1.28 -1.472,4.288 -2.304,6.784 -0.53333,-1.19467 -3.05067,-6.76267 -3.05067,-6.76267 l -1.152,0.384 3.60534,8.17067 c -0.0853,0.23466 -0.14934,0.448 -0.21334,0.64 -0.896,2.816 -2.304,3.62666 -3.54133,3.62666 l -0.0427,1.024 c 1.57867,-0.0427 3.41334,-0.34133 4.736,-4.288 0.10667,-0.34133 1.23734,-3.62666 1.45067,-4.26666 z"
         style=""
         id="path839" />
      <path
         d="m 298.47195,297.11402 0.78934,-1.94133 -0.256,-0.61867 -1.00267,2.51733 -1.94133,-0.192 1.94133,-4.8 -0.49067,-1.23733 -2.41066,5.93067 -1.45067,-0.14934 3.09333,-7.63733 -0.74666,-1.856 -3.776,9.344 -0.98134,-0.0853 4.26667,-10.496 -1.00267,-2.47467 -5.184,12.75733 -0.46933,-0.0427 5.39733,-13.33334 -1.25866,-3.09333 -7.53067,18.56 c 2.51733,1.45067 5.01333,2.15467 7.46667,2.15467 2.56,0 5.09866,-0.74667 7.59466,-2.15467 l -0.40533,-0.98133 z"
         style=""
         id="path841" />
      <path
         d="m 310.93059,295.21535 -0.896,-0.87466 c -0.576,0.55466 -1.62134,1.06666 -2.58134,1.06666 -1.51466,0 -3.17866,-1.25866 -3.17866,-3.56266 0,-1.792 1.70666,-3.37067 3.47733,-3.37067 1.32267,0 1.92,0.61867 2.368,0.91733 l 0.85333,-0.96 c -0.66133,-0.46933 -1.62133,-1.25866 -3.22133,-1.25866 -3.05067,0 -4.672,2.90133 -4.672,4.77866 0,2.112 1.472,4.71467 4.544,4.71467 1.024,0 2.432,-0.64 3.30667,-1.45067 z"
         style=""
         id="path843" />
      <path
         d="m 316.37058,288.64469 v -1.57867 c 0,-1.92 -0.256,-4.11733 -1.216,-4.82133 l -0.98133,0.704 c 0.96,0.832 1.00267,2.24 1.00267,4.11733 0,2.15467 0.0213,7.59467 0.0213,9.472 h 1.19467 v -4.544 -0.256 c 0,-1.89867 1.57866,-3.392 3.392,-3.392 h 0.0427 c 1.92,0.0213 3.24267,1.62133 3.24267,3.648 v 0.0427 4.50133 h 1.23733 v -4.52267 c 0,-3.17866 -1.96266,-4.97066 -4.52266,-4.97066 -1.49334,0 -2.64534,0.68266 -3.41334,1.6 z"
         style=""
         id="path845" />
      <path
         d="m 337.02122,288.90069 c -0.59733,-0.704 -1.42933,-1.6 -3.264,-1.6 -1.57867,0 -2.66667,0.768 -3.34933,1.77066 -0.192,-0.768 -0.46934,-1.38666 -0.91734,-1.70666 l -1.00266,0.704 c 0.78933,0.87466 1.00266,1.728 1.00266,3.49866 v 0.17067 4.8 h 1.19467 v -4.8 c 0,-1.89867 1.25867,-3.136 3.072,-3.136 h 0.0427 c 1.32266,0 1.6,0.32 2.21866,1.10933 z"
         style=""
         id="path847" />
      <path
         d="m 344.10388,295.40735 c -2.048,0 -3.22133,-1.96266 -3.30667,-3.66933 0,-0.0427 0,-0.0853 0,-0.128 0,-1.792 1.664,-3.41333 3.41334,-3.41333 0,0 0.0213,0 0.0213,0 1.94133,0.0213 3.24267,1.96266 3.24267,3.84 0,1.55733 -1.408,3.37066 -3.37067,3.37066 z m -4.50133,-3.66933 c 0,2.15467 1.36533,4.94933 4.45866,4.94933 0,0 0.0213,0 0.0213,-0.0213 2.88,-0.0213 4.58666,-2.24 4.62933,-4.65067 0.0213,-0.0213 0.0213,-0.0427 0.0213,-0.0853 0,-2.368 -1.57866,-4.992 -4.544,-5.03467 -0.0213,0 -0.0427,0 -0.064,0 -3.008,0 -4.52266,2.98667 -4.52266,4.84267 z"
         style=""
         id="path849" />
      <path
         d="m 360.40251,296.53802 h 1.23734 v -4.52267 c 0,-0.832 -0.10667,-1.55733 -0.29867,-2.19733 0.36267,-0.87467 1.68533,-1.49333 2.58133,-1.49333 1.89867,0.0213 2.432,1.6 2.432,3.60533 0,0.0427 0,0.0853 0,0.128 -0.0213,0.512 -0.0213,0.98133 -0.0213,1.45067 0,0.96 0.0213,1.87733 0.0213,3.05066 h 1.23734 v -4.52266 c 0,-3.17867 -1.152,-4.992 -3.712,-4.992 -0.96,0 -2.47467,0.61866 -3.22134,1.472 -0.704,-0.96 -1.45066,-1.45067 -2.79466,-1.45067 -1.57867,0 -2.66667,0.74667 -3.34934,1.728 -0.17066,-0.768 -0.46933,-1.408 -0.91733,-1.728 l -1.00267,0.704 c 0.96,0.81067 1.00267,2.048 1.00267,3.81867 v 0.17066 4.8 h 1.19467 v -4.8 c 0,-1.92 1.25866,-3.41333 3.072,-3.41333 0,0 0.0213,0 0.0427,0.0213 1.89867,0 2.496,1.57867 2.496,3.56267 0,0.0427 0,0.0853 0,0.128 -0.0213,0.512 -0.0213,0.98133 -0.0213,1.45067 0,0.96 0.0213,1.87733 0.0213,3.02933 z"
         style=""
         id="path851" />
      <path
         d="m 371.5598,291.88735 c 0,2.15467 1.792,4.65067 4.18133,4.65067 1.28,0 2.688,-0.68267 3.54134,-1.96267 0.53333,1.19467 1.408,1.96267 2.38933,1.96267 1.49333,0 1.536,-0.74667 2.38933,-1.664 l -0.85333,-0.832 c -0.91733,1.10933 -0.68267,1.216 -1.536,1.25867 -0.0213,0.0213 -0.0213,0.0213 -0.0213,0.0213 -0.64,0 -1.49334,-1.088 -1.64267,-2.90133 0,-0.10667 0.0213,-0.23467 0.0213,-0.36267 0,-0.0213 0,-0.064 0,-0.10667 0,-2.92266 -1.70666,-4.90666 -4.096,-4.90666 -0.0213,0 -0.0427,0 -0.064,0 -3.072,0.064 -4.30933,2.96533 -4.30933,4.84266 z m 7.232,0 c 0,0.0853 -0.0213,0.17067 -0.0213,0.256 -0.0853,1.536 -1.10934,3.11467 -3.02934,3.136 -0.0213,0.0213 -0.0427,0.0213 -0.0427,0.0213 -1.57867,0 -2.944,-1.57867 -2.944,-3.41334 0,-2.06933 1.30133,-3.54133 3.09333,-3.54133 0,0 0.0213,0 0.0427,0 1.87733,0.0213 2.90133,1.6 2.90133,3.54133 z"
         style=""
         id="path853" />
      <path
         d="m 387.96511,282.22335 0.0213,4.84267 h -1.42933 v 0.96 h 1.408 c 0,1.408 0.0213,3.56267 0.0213,3.84 0,1.92 1.00267,3.968 1.96267,4.672 l 0.91733,-0.64 c -0.98133,-0.832 -1.68533,-2.15467 -1.68533,-4.032 -0.0213,-0.87467 -0.0213,-2.304 -0.0213,-3.81867 h 2.176 v -0.98133 h -2.13334 l -0.0427,-4.84267 z"
         style=""
         id="path855" />
      <path
         d="m 396.24242,291.90869 c 0,1.92 0.23466,3.98933 1.19466,4.69333 l 0.98134,-0.704 c -0.96,-0.832 -0.98134,-2.112 -1.00267,-3.98933 v -3.54134 h -1.17333 z m -0.10667,-6.37867 v 1.51467 h 1.36533 v -1.51467 z"
         style=""
         id="path857" />
      <path
         d="m 409.78908,295.21535 -0.896,-0.87466 c -0.576,0.55466 -1.62134,1.06666 -2.58134,1.06666 -1.51466,0 -3.17866,-1.25866 -3.17866,-3.56266 0,-1.792 1.70666,-3.37067 3.47733,-3.37067 1.32267,0 1.92,0.61867 2.368,0.91733 l 0.85333,-0.96 c -0.66133,-0.46933 -1.62133,-1.25866 -3.22133,-1.25866 -3.05067,0 -4.672,2.90133 -4.672,4.77866 0,2.112 1.472,4.71467 4.544,4.71467 1.024,0 2.432,-0.64 3.30667,-1.45067 z"
         style=""
         id="path859" />
    </g>
    <text
       xml:space="preserve"
       style="font-style:normal;font-variant:normal;font-weight:normal;font-stretch:normal;font-size:5.64444447px;line-height:1.25;font-family:Achromatic-wm;-inkscape-font-specification:Achromatic-wm;letter-spacing:0px;word-spacing:0px;fill:#000000;fill-opacity:1;stroke:none;stroke-width:0.26458332"
       x="93.952492"
       y="80.000099"
       id="text829"><tspan
         sodipodi:role="line"
         id="tspan827"
         x="93.952492"
         y="85.221207"
         style="stroke-width:0.26458332" /></text>
  </g>
</svg>
